<svg xmlns="http://www.w3.org/2000/svg" xmlns:xlink="http://www.w3.org/1999/xlink" width="500" zoomAndPan="magnify" viewBox="0 0 375 374.999991" height="500" preserveAspectRatio="xMidYMid meet" version="1.0"><defs><g/></defs><path stroke-linecap="butt" transform="matrix(0.75, 0, 0, 0.75, -154.230089, 75.373003)" fill="none" stroke-linejoin="miter" d="M 213.921382 48.502666 C 213.921382 95.679752 241.535967 123.211004 290.025554 124.606837 L 297.754721 124.606837 C 303.504721 124.606837 314.931805 124.606837 314.931805 141.783922 L 314.931805 166.028715 C 314.931805 175.070382 302.108888 185.507883 283.947428 185.507883 L 220.004716 185.507883 L 220.004716 234.330803 L 283.947428 234.330803 C 327.67139 234.330803 363.421392 203.674551 363.421392 166.028715 L 363.421392 141.783922 C 363.421392 110.143295 342.874516 75.789126 297.754721 75.789126 L 293.395346 75.789126 C 271.124511 75.789126 262.739094 70.695376 262.739094 48.502666 C 262.739094 40.778707 272.520344 27.955789 279.916178 27.955789 L 306.79118 27.955789 L 355.6141 28.283914 L 355.6141 -20.533797 L 273.838053 -20.533797 C 239.812009 -16.83588 213.921382 18.174539 213.921382 48.502666 Z M 515.171402 -20.861922 L 380.223476 -21.190047 L 380.223476 233.669345 L 515.171402 233.669345 L 515.171402 184.851633 L 429.041188 184.851633 L 429.041188 123.950587 L 484.598483 123.950587 L 484.598483 75.132876 L 429.041188 75.132876 L 429.041188 27.627664 L 515.171402 27.627664 Z M 623.931826 -20.861922 L 532.046403 -20.861922 L 532.046403 233.669345 L 623.931826 233.669345 C 655.244328 233.669345 680.478704 208.112051 680.478704 177.127674 L 680.478704 35.679748 C 680.478704 4.45058 655.244328 -20.861922 623.931826 -20.861922 Z M 632.067243 177.127674 C 632.067243 181.481841 628.285993 184.851633 623.931826 184.851633 L 580.864115 184.851633 L 580.864115 27.627664 L 623.931826 27.627664 C 628.285993 27.627664 632.067243 31.325581 632.067243 35.679748 Z M 632.067243 177.127674 " stroke="#ffffff" stroke-width="9.678658" stroke-opacity="1" stroke-miterlimit="4"/><g fill="#ffffff" fill-opacity="1"><g transform="translate(3.937504, 339.067507)"><g><path d="M 16.25 -21.796875 L 11.875 -21.796875 L 11.875 -22.796875 C 11.875 -23.796875 11.632812 -24.660156 11.15625 -25.390625 C 10.6875 -26.117188 9.890625 -26.484375 8.765625 -26.484375 C 8.171875 -26.484375 7.675781 -26.367188 7.28125 -26.140625 C 6.894531 -25.910156 6.59375 -25.613281 6.375 -25.25 C 6.164062 -24.894531 6.019531 -24.484375 5.9375 -24.015625 C 5.851562 -23.546875 5.8125 -23.050781 5.8125 -22.53125 C 5.8125 -21.925781 5.832031 -21.414062 5.875 -21 C 5.914062 -20.582031 6.019531 -20.222656 6.1875 -19.921875 C 6.363281 -19.628906 6.613281 -19.367188 6.9375 -19.140625 C 7.269531 -18.910156 7.722656 -18.679688 8.296875 -18.453125 L 11.65625 -17.109375 C 12.625 -16.742188 13.410156 -16.304688 14.015625 -15.796875 C 14.617188 -15.296875 15.082031 -14.707031 15.40625 -14.03125 C 15.738281 -13.363281 15.960938 -12.59375 16.078125 -11.71875 C 16.191406 -10.84375 16.25 -9.847656 16.25 -8.734375 C 16.25 -7.441406 16.117188 -6.242188 15.859375 -5.140625 C 15.609375 -4.035156 15.1875 -3.085938 14.59375 -2.296875 C 14.007812 -1.515625 13.226562 -0.890625 12.25 -0.421875 C 11.28125 0.0351562 10.09375 0.265625 8.6875 0.265625 C 7.625 0.265625 6.632812 0.078125 5.71875 -0.296875 C 4.800781 -0.671875 4.007812 -1.179688 3.34375 -1.828125 C 2.6875 -2.472656 2.164062 -3.238281 1.78125 -4.125 C 1.394531 -5.019531 1.203125 -5.984375 1.203125 -7.015625 L 1.203125 -8.640625 L 5.59375 -8.640625 L 5.59375 -7.265625 C 5.59375 -6.460938 5.828125 -5.738281 6.296875 -5.09375 C 6.773438 -4.445312 7.570312 -4.125 8.6875 -4.125 C 9.425781 -4.125 10.003906 -4.226562 10.421875 -4.4375 C 10.835938 -4.65625 11.15625 -4.957031 11.375 -5.34375 C 11.59375 -5.738281 11.726562 -6.222656 11.78125 -6.796875 C 11.84375 -7.367188 11.875 -8 11.875 -8.6875 C 11.875 -9.488281 11.84375 -10.144531 11.78125 -10.65625 C 11.726562 -11.175781 11.609375 -11.59375 11.421875 -11.90625 C 11.234375 -12.226562 10.972656 -12.488281 10.640625 -12.6875 C 10.304688 -12.882812 9.867188 -13.097656 9.328125 -13.328125 L 6.1875 -14.625 C 4.300781 -15.394531 3.035156 -16.414062 2.390625 -17.6875 C 1.742188 -18.96875 1.421875 -20.566406 1.421875 -22.484375 C 1.421875 -23.628906 1.578125 -24.71875 1.890625 -25.75 C 2.203125 -26.789062 2.664062 -27.679688 3.28125 -28.421875 C 3.90625 -29.171875 4.6875 -29.765625 5.625 -30.203125 C 6.570312 -30.648438 7.675781 -30.875 8.9375 -30.875 C 10.03125 -30.875 11.023438 -30.671875 11.921875 -30.265625 C 12.828125 -29.867188 13.601562 -29.335938 14.25 -28.671875 C 14.894531 -28.015625 15.390625 -27.273438 15.734375 -26.453125 C 16.078125 -25.640625 16.25 -24.804688 16.25 -23.953125 Z M 16.25 -21.796875 "/></g></g></g><g fill="#ffffff" fill-opacity="1"><g transform="translate(21.393943, 339.067507)"><g><path d="M 6.453125 -6.28125 C 6.453125 -5.59375 6.644531 -5.0625 7.03125 -4.6875 C 7.414062 -4.3125 7.9375 -4.125 8.59375 -4.125 C 9.425781 -4.125 9.976562 -4.367188 10.25 -4.859375 C 10.519531 -5.347656 10.6875 -5.835938 10.75 -6.328125 L 15.140625 -6.328125 C 15.140625 -5.398438 14.988281 -4.535156 14.6875 -3.734375 C 14.382812 -2.929688 13.945312 -2.242188 13.375 -1.671875 C 12.800781 -1.078125 12.113281 -0.601562 11.3125 -0.25 C 10.507812 0.09375 9.601562 0.265625 8.59375 0.265625 C 7.25 0.265625 6.085938 -0.0195312 5.109375 -0.59375 C 4.140625 -1.175781 3.394531 -1.9375 2.875 -2.875 C 2.5625 -3.445312 2.347656 -4.109375 2.234375 -4.859375 C 2.117188 -5.609375 2.0625 -6.425781 2.0625 -7.3125 L 2.0625 -14.484375 C 2.0625 -15.378906 2.117188 -16.195312 2.234375 -16.9375 C 2.347656 -17.6875 2.5625 -18.347656 2.875 -18.921875 C 3.394531 -19.867188 4.140625 -20.628906 5.109375 -21.203125 C 6.085938 -21.773438 7.25 -22.0625 8.59375 -22.0625 C 9.601562 -22.0625 10.515625 -21.890625 11.328125 -21.546875 C 12.148438 -21.203125 12.835938 -20.71875 13.390625 -20.09375 C 13.953125 -19.476562 14.382812 -18.738281 14.6875 -17.875 C 14.988281 -17.019531 15.140625 -16.09375 15.140625 -15.09375 L 10.75 -15.09375 C 10.75 -15.976562 10.554688 -16.628906 10.171875 -17.046875 C 9.785156 -17.460938 9.257812 -17.671875 8.59375 -17.671875 C 7.9375 -17.671875 7.414062 -17.460938 7.03125 -17.046875 C 6.644531 -16.628906 6.453125 -16.003906 6.453125 -15.171875 Z M 6.453125 -6.28125 "/></g></g></g><g fill="#ffffff" fill-opacity="1"><g transform="translate(37.302523, 339.067507)"><g><path d="M 1.8125 -21.796875 L 6.1875 -21.796875 L 6.1875 0 L 1.8125 0 Z M 1.8125 -30.609375 L 6.1875 -30.609375 L 6.1875 -26.234375 L 1.8125 -26.234375 Z M 1.8125 -30.609375 "/></g></g></g><g fill="#ffffff" fill-opacity="1"><g transform="translate(45.299814, 339.067507)"><g><path d="M 5.8125 -9.25 L 5.8125 -6.28125 C 5.8125 -5.59375 6.003906 -5.0625 6.390625 -4.6875 C 6.773438 -4.3125 7.296875 -4.125 7.953125 -4.125 C 8.785156 -4.125 9.335938 -4.367188 9.609375 -4.859375 C 9.878906 -5.347656 10.046875 -5.835938 10.109375 -6.328125 L 14.484375 -6.328125 C 14.484375 -5.398438 14.332031 -4.535156 14.03125 -3.734375 C 13.738281 -2.929688 13.304688 -2.242188 12.734375 -1.671875 C 12.160156 -1.078125 11.46875 -0.601562 10.65625 -0.25 C 9.851562 0.09375 8.953125 0.265625 7.953125 0.265625 C 6.609375 0.265625 5.445312 -0.0195312 4.46875 -0.59375 C 3.5 -1.175781 2.753906 -1.9375 2.234375 -2.875 C 1.921875 -3.445312 1.707031 -4.109375 1.59375 -4.859375 C 1.476562 -5.609375 1.421875 -6.425781 1.421875 -7.3125 L 1.421875 -14.484375 C 1.421875 -15.378906 1.476562 -16.195312 1.59375 -16.9375 C 1.707031 -17.6875 1.921875 -18.347656 2.234375 -18.921875 C 2.753906 -19.867188 3.5 -20.628906 4.46875 -21.203125 C 5.445312 -21.773438 6.609375 -22.0625 7.953125 -22.0625 C 8.953125 -22.0625 9.859375 -21.890625 10.671875 -21.546875 C 11.492188 -21.203125 12.1875 -20.71875 12.75 -20.09375 C 13.3125 -19.476562 13.738281 -18.753906 14.03125 -17.921875 C 14.332031 -17.097656 14.484375 -16.210938 14.484375 -15.265625 L 14.484375 -9.25 Z M 5.8125 -12.6875 L 10.109375 -12.6875 L 10.109375 -15.171875 C 10.109375 -16.003906 9.910156 -16.628906 9.515625 -17.046875 C 9.128906 -17.460938 8.609375 -17.671875 7.953125 -17.671875 C 7.296875 -17.671875 6.773438 -17.460938 6.390625 -17.046875 C 6.003906 -16.628906 5.8125 -16.003906 5.8125 -15.171875 Z M 5.8125 -12.6875 "/></g></g></g><g fill="#ffffff" fill-opacity="1"><g transform="translate(61.208393, 339.067507)"><g><path d="M 1.8125 -21.796875 L 6.1875 -21.796875 L 6.1875 -19.6875 L 6.28125 -19.6875 C 6.738281 -20.375 7.289062 -20.941406 7.9375 -21.390625 C 8.582031 -21.835938 9.40625 -22.0625 10.40625 -22.0625 C 10.945312 -22.0625 11.488281 -21.96875 12.03125 -21.78125 C 12.582031 -21.59375 13.070312 -21.28125 13.5 -20.84375 C 13.925781 -20.414062 14.269531 -19.863281 14.53125 -19.1875 C 14.789062 -18.519531 14.921875 -17.703125 14.921875 -16.734375 L 14.921875 0 L 10.53125 0 L 10.53125 -15.09375 C 10.53125 -15.894531 10.34375 -16.523438 9.96875 -16.984375 C 9.601562 -17.441406 9.078125 -17.671875 8.390625 -17.671875 C 7.554688 -17.671875 6.976562 -17.410156 6.65625 -16.890625 C 6.34375 -16.378906 6.1875 -15.632812 6.1875 -14.65625 L 6.1875 0 L 1.8125 0 Z M 1.8125 -21.796875 "/></g></g></g><g fill="#ffffff" fill-opacity="1"><g transform="translate(77.933898, 339.067507)"><g><path d="M 1.8125 -28.421875 L 6.1875 -28.421875 L 6.1875 -21.796875 L 8.90625 -21.796875 L 8.90625 -18.359375 L 6.1875 -18.359375 L 6.1875 -6.28125 C 6.1875 -5.757812 6.238281 -5.351562 6.34375 -5.0625 C 6.445312 -4.78125 6.601562 -4.566406 6.8125 -4.421875 C 7.03125 -4.285156 7.3125 -4.203125 7.65625 -4.171875 C 8 -4.140625 8.414062 -4.125 8.90625 -4.125 L 8.90625 0 L 7.09375 0 C 6.09375 0 5.253906 -0.15625 4.578125 -0.46875 C 3.898438 -0.789062 3.359375 -1.191406 2.953125 -1.671875 C 2.554688 -2.160156 2.265625 -2.710938 2.078125 -3.328125 C 1.898438 -3.941406 1.8125 -4.535156 1.8125 -5.109375 L 1.8125 -18.359375 L -0.390625 -18.359375 L -0.390625 -21.796875 L 1.8125 -21.796875 Z M 1.8125 -28.421875 "/></g></g></g><g fill="#ffffff" fill-opacity="1"><g transform="translate(86.705118, 339.067507)"><g><path d="M 1.8125 -21.796875 L 6.1875 -21.796875 L 6.1875 0 L 1.8125 0 Z M 1.8125 -30.609375 L 6.1875 -30.609375 L 6.1875 -26.234375 L 1.8125 -26.234375 Z M 1.8125 -30.609375 "/></g></g></g><g fill="#ffffff" fill-opacity="1"><g transform="translate(94.702409, 339.067507)"><g><path d="M 2.359375 -18.359375 L 0.21875 -18.359375 L 0.21875 -21.796875 L 2.359375 -21.796875 L 2.359375 -24.765625 C 2.359375 -25.828125 2.515625 -26.722656 2.828125 -27.453125 C 3.148438 -28.179688 3.578125 -28.78125 4.109375 -29.25 C 4.640625 -29.726562 5.238281 -30.070312 5.90625 -30.28125 C 6.582031 -30.5 7.28125 -30.609375 8 -30.609375 L 10.015625 -30.609375 L 10.015625 -26.484375 L 8.046875 -26.484375 C 7.179688 -26.484375 6.75 -25.984375 6.75 -24.984375 L 6.75 -21.796875 L 10.015625 -21.796875 L 10.015625 -18.359375 L 6.75 -18.359375 L 6.75 0 L 2.359375 0 Z M 2.359375 -18.359375 "/></g></g></g><g fill="#ffffff" fill-opacity="1"><g transform="translate(104.247559, 339.067507)"><g><path d="M 1.8125 -21.796875 L 6.1875 -21.796875 L 6.1875 0 L 1.8125 0 Z M 1.8125 -30.609375 L 6.1875 -30.609375 L 6.1875 -26.234375 L 1.8125 -26.234375 Z M 1.8125 -30.609375 "/></g></g></g><g fill="#ffffff" fill-opacity="1"><g transform="translate(112.24485, 339.067507)"><g><path d="M 6.453125 -6.28125 C 6.453125 -5.59375 6.644531 -5.0625 7.03125 -4.6875 C 7.414062 -4.3125 7.9375 -4.125 8.59375 -4.125 C 9.425781 -4.125 9.976562 -4.367188 10.25 -4.859375 C 10.519531 -5.347656 10.6875 -5.835938 10.75 -6.328125 L 15.140625 -6.328125 C 15.140625 -5.398438 14.988281 -4.535156 14.6875 -3.734375 C 14.382812 -2.929688 13.945312 -2.242188 13.375 -1.671875 C 12.800781 -1.078125 12.113281 -0.601562 11.3125 -0.25 C 10.507812 0.09375 9.601562 0.265625 8.59375 0.265625 C 7.25 0.265625 6.085938 -0.0195312 5.109375 -0.59375 C 4.140625 -1.175781 3.394531 -1.9375 2.875 -2.875 C 2.5625 -3.445312 2.347656 -4.109375 2.234375 -4.859375 C 2.117188 -5.609375 2.0625 -6.425781 2.0625 -7.3125 L 2.0625 -14.484375 C 2.0625 -15.378906 2.117188 -16.195312 2.234375 -16.9375 C 2.347656 -17.6875 2.5625 -18.347656 2.875 -18.921875 C 3.394531 -19.867188 4.140625 -20.628906 5.109375 -21.203125 C 6.085938 -21.773438 7.25 -22.0625 8.59375 -22.0625 C 9.601562 -22.0625 10.515625 -21.890625 11.328125 -21.546875 C 12.148438 -21.203125 12.835938 -20.71875 13.390625 -20.09375 C 13.953125 -19.476562 14.382812 -18.738281 14.6875 -17.875 C 14.988281 -17.019531 15.140625 -16.09375 15.140625 -15.09375 L 10.75 -15.09375 C 10.75 -15.976562 10.554688 -16.628906 10.171875 -17.046875 C 9.785156 -17.460938 9.257812 -17.671875 8.59375 -17.671875 C 7.9375 -17.671875 7.414062 -17.460938 7.03125 -17.046875 C 6.644531 -16.628906 6.453125 -16.003906 6.453125 -15.171875 Z M 6.453125 -6.28125 "/></g></g></g><g fill="#ffffff" fill-opacity="1"><g transform="translate(128.144527, 339.067507)"><g/></g></g><g fill="#ffffff" fill-opacity="1"><g transform="translate(136.141818, 339.067507)"><g/></g></g><g fill="#ffffff" fill-opacity="1"><g transform="translate(144.128901, 339.067507)"><g><path d="M 2.0625 -30.609375 L 15.140625 -30.609375 L 15.140625 -26.484375 L 6.453125 -26.484375 L 6.453125 -17.5 L 14.015625 -17.5 L 14.015625 -13.375 L 6.453125 -13.375 L 6.453125 -4.390625 L 15.140625 -4.390625 L 15.140625 0 L 2.0625 0 Z M 2.0625 -30.609375 "/></g></g></g><g fill="#ffffff" fill-opacity="1"><g transform="translate(160.037481, 339.067507)"><g><path d="M 9.5 0 L 5.640625 0 L -0.046875 -21.796875 L 4.59375 -21.796875 L 7.53125 -7.875 L 7.609375 -7.875 L 10.53125 -21.796875 L 15.171875 -21.796875 Z M 9.5 0 "/></g></g></g><g fill="#ffffff" fill-opacity="1"><g transform="translate(175.172131, 339.067507)"><g><path d="M 1.8125 -21.796875 L 6.1875 -21.796875 L 6.1875 0 L 1.8125 0 Z M 1.8125 -30.609375 L 6.1875 -30.609375 L 6.1875 -26.234375 L 1.8125 -26.234375 Z M 1.8125 -30.609375 "/></g></g></g><g fill="#ffffff" fill-opacity="1"><g transform="translate(183.169422, 339.067507)"><g><path d="M 6.1875 -7.09375 C 6.1875 -6.207031 6.359375 -5.488281 6.703125 -4.9375 C 7.046875 -4.394531 7.59375 -4.125 8.34375 -4.125 C 9 -4.125 9.523438 -4.375 9.921875 -4.875 C 10.328125 -5.382812 10.53125 -6.039062 10.53125 -6.84375 L 10.53125 -15.3125 C 10.53125 -16 10.320312 -16.5625 9.90625 -17 C 9.488281 -17.445312 8.96875 -17.671875 8.34375 -17.671875 C 7.507812 -17.671875 6.941406 -17.410156 6.640625 -16.890625 C 6.335938 -16.378906 6.1875 -15.78125 6.1875 -15.09375 Z M 10.53125 -1.984375 C 10.25 -1.660156 9.976562 -1.363281 9.71875 -1.09375 C 9.457031 -0.820312 9.171875 -0.585938 8.859375 -0.390625 C 8.546875 -0.191406 8.1875 -0.0351562 7.78125 0.078125 C 7.382812 0.203125 6.910156 0.265625 6.359375 0.265625 C 4.554688 0.265625 3.28125 -0.425781 2.53125 -1.8125 C 2.28125 -2.289062 2.097656 -2.890625 1.984375 -3.609375 C 1.867188 -4.328125 1.8125 -5.289062 1.8125 -6.5 L 1.8125 -14.796875 C 1.8125 -16.367188 1.851562 -17.523438 1.9375 -18.265625 C 2.019531 -19.015625 2.207031 -19.617188 2.5 -20.078125 C 2.863281 -20.648438 3.335938 -21.125 3.921875 -21.5 C 4.515625 -21.875 5.34375 -22.0625 6.40625 -22.0625 C 7.269531 -22.0625 8.035156 -21.863281 8.703125 -21.46875 C 9.378906 -21.082031 9.960938 -20.535156 10.453125 -19.828125 L 10.53125 -19.828125 L 10.53125 -30.609375 L 14.921875 -30.609375 L 14.921875 0 L 10.53125 0 Z M 10.53125 -1.984375 "/></g></g></g><g fill="#ffffff" fill-opacity="1"><g transform="translate(199.894927, 339.067507)"><g><path d="M 5.8125 -9.25 L 5.8125 -6.28125 C 5.8125 -5.59375 6.003906 -5.0625 6.390625 -4.6875 C 6.773438 -4.3125 7.296875 -4.125 7.953125 -4.125 C 8.785156 -4.125 9.335938 -4.367188 9.609375 -4.859375 C 9.878906 -5.347656 10.046875 -5.835938 10.109375 -6.328125 L 14.484375 -6.328125 C 14.484375 -5.398438 14.332031 -4.535156 14.03125 -3.734375 C 13.738281 -2.929688 13.304688 -2.242188 12.734375 -1.671875 C 12.160156 -1.078125 11.46875 -0.601562 10.65625 -0.25 C 9.851562 0.09375 8.953125 0.265625 7.953125 0.265625 C 6.609375 0.265625 5.445312 -0.0195312 4.46875 -0.59375 C 3.5 -1.175781 2.753906 -1.9375 2.234375 -2.875 C 1.921875 -3.445312 1.707031 -4.109375 1.59375 -4.859375 C 1.476562 -5.609375 1.421875 -6.425781 1.421875 -7.3125 L 1.421875 -14.484375 C 1.421875 -15.378906 1.476562 -16.195312 1.59375 -16.9375 C 1.707031 -17.6875 1.921875 -18.347656 2.234375 -18.921875 C 2.753906 -19.867188 3.5 -20.628906 4.46875 -21.203125 C 5.445312 -21.773438 6.609375 -22.0625 7.953125 -22.0625 C 8.953125 -22.0625 9.859375 -21.890625 10.671875 -21.546875 C 11.492188 -21.203125 12.1875 -20.71875 12.75 -20.09375 C 13.3125 -19.476562 13.738281 -18.753906 14.03125 -17.921875 C 14.332031 -17.097656 14.484375 -16.210938 14.484375 -15.265625 L 14.484375 -9.25 Z M 5.8125 -12.6875 L 10.109375 -12.6875 L 10.109375 -15.171875 C 10.109375 -16.003906 9.910156 -16.628906 9.515625 -17.046875 C 9.128906 -17.460938 8.609375 -17.671875 7.953125 -17.671875 C 7.296875 -17.671875 6.773438 -17.460938 6.390625 -17.046875 C 6.003906 -16.628906 5.8125 -16.003906 5.8125 -15.171875 Z M 5.8125 -12.6875 "/></g></g></g><g fill="#ffffff" fill-opacity="1"><g transform="translate(215.803506, 339.067507)"><g><path d="M 1.8125 -21.796875 L 6.1875 -21.796875 L 6.1875 -19.6875 L 6.28125 -19.6875 C 6.738281 -20.375 7.289062 -20.941406 7.9375 -21.390625 C 8.582031 -21.835938 9.40625 -22.0625 10.40625 -22.0625 C 10.945312 -22.0625 11.488281 -21.96875 12.03125 -21.78125 C 12.582031 -21.59375 13.070312 -21.28125 13.5 -20.84375 C 13.925781 -20.414062 14.269531 -19.863281 14.53125 -19.1875 C 14.789062 -18.519531 14.921875 -17.703125 14.921875 -16.734375 L 14.921875 0 L 10.53125 0 L 10.53125 -15.09375 C 10.53125 -15.894531 10.34375 -16.523438 9.96875 -16.984375 C 9.601562 -17.441406 9.078125 -17.671875 8.390625 -17.671875 C 7.554688 -17.671875 6.976562 -17.410156 6.65625 -16.890625 C 6.34375 -16.378906 6.1875 -15.632812 6.1875 -14.65625 L 6.1875 0 L 1.8125 0 Z M 1.8125 -21.796875 "/></g></g></g><g fill="#ffffff" fill-opacity="1"><g transform="translate(232.529011, 339.067507)"><g><path d="M 6.453125 -6.28125 C 6.453125 -5.59375 6.644531 -5.0625 7.03125 -4.6875 C 7.414062 -4.3125 7.9375 -4.125 8.59375 -4.125 C 9.425781 -4.125 9.976562 -4.367188 10.25 -4.859375 C 10.519531 -5.347656 10.6875 -5.835938 10.75 -6.328125 L 15.140625 -6.328125 C 15.140625 -5.398438 14.988281 -4.535156 14.6875 -3.734375 C 14.382812 -2.929688 13.945312 -2.242188 13.375 -1.671875 C 12.800781 -1.078125 12.113281 -0.601562 11.3125 -0.25 C 10.507812 0.09375 9.601562 0.265625 8.59375 0.265625 C 7.25 0.265625 6.085938 -0.0195312 5.109375 -0.59375 C 4.140625 -1.175781 3.394531 -1.9375 2.875 -2.875 C 2.5625 -3.445312 2.347656 -4.109375 2.234375 -4.859375 C 2.117188 -5.609375 2.0625 -6.425781 2.0625 -7.3125 L 2.0625 -14.484375 C 2.0625 -15.378906 2.117188 -16.195312 2.234375 -16.9375 C 2.347656 -17.6875 2.5625 -18.347656 2.875 -18.921875 C 3.394531 -19.867188 4.140625 -20.628906 5.109375 -21.203125 C 6.085938 -21.773438 7.25 -22.0625 8.59375 -22.0625 C 9.601562 -22.0625 10.515625 -21.890625 11.328125 -21.546875 C 12.148438 -21.203125 12.835938 -20.71875 13.390625 -20.09375 C 13.953125 -19.476562 14.382812 -18.738281 14.6875 -17.875 C 14.988281 -17.019531 15.140625 -16.09375 15.140625 -15.09375 L 10.75 -15.09375 C 10.75 -15.976562 10.554688 -16.628906 10.171875 -17.046875 C 9.785156 -17.460938 9.257812 -17.671875 8.59375 -17.671875 C 7.9375 -17.671875 7.414062 -17.460938 7.03125 -17.046875 C 6.644531 -16.628906 6.453125 -16.003906 6.453125 -15.171875 Z M 6.453125 -6.28125 "/></g></g></g><g fill="#ffffff" fill-opacity="1"><g transform="translate(248.43759, 339.067507)"><g><path d="M 5.8125 -9.25 L 5.8125 -6.28125 C 5.8125 -5.59375 6.003906 -5.0625 6.390625 -4.6875 C 6.773438 -4.3125 7.296875 -4.125 7.953125 -4.125 C 8.785156 -4.125 9.335938 -4.367188 9.609375 -4.859375 C 9.878906 -5.347656 10.046875 -5.835938 10.109375 -6.328125 L 14.484375 -6.328125 C 14.484375 -5.398438 14.332031 -4.535156 14.03125 -3.734375 C 13.738281 -2.929688 13.304688 -2.242188 12.734375 -1.671875 C 12.160156 -1.078125 11.46875 -0.601562 10.65625 -0.25 C 9.851562 0.09375 8.953125 0.265625 7.953125 0.265625 C 6.609375 0.265625 5.445312 -0.0195312 4.46875 -0.59375 C 3.5 -1.175781 2.753906 -1.9375 2.234375 -2.875 C 1.921875 -3.445312 1.707031 -4.109375 1.59375 -4.859375 C 1.476562 -5.609375 1.421875 -6.425781 1.421875 -7.3125 L 1.421875 -14.484375 C 1.421875 -15.378906 1.476562 -16.195312 1.59375 -16.9375 C 1.707031 -17.6875 1.921875 -18.347656 2.234375 -18.921875 C 2.753906 -19.867188 3.5 -20.628906 4.46875 -21.203125 C 5.445312 -21.773438 6.609375 -22.0625 7.953125 -22.0625 C 8.953125 -22.0625 9.859375 -21.890625 10.671875 -21.546875 C 11.492188 -21.203125 12.1875 -20.71875 12.75 -20.09375 C 13.3125 -19.476562 13.738281 -18.753906 14.03125 -17.921875 C 14.332031 -17.097656 14.484375 -16.210938 14.484375 -15.265625 L 14.484375 -9.25 Z M 5.8125 -12.6875 L 10.109375 -12.6875 L 10.109375 -15.171875 C 10.109375 -16.003906 9.910156 -16.628906 9.515625 -17.046875 C 9.128906 -17.460938 8.609375 -17.671875 7.953125 -17.671875 C 7.296875 -17.671875 6.773438 -17.460938 6.390625 -17.046875 C 6.003906 -16.628906 5.8125 -16.003906 5.8125 -15.171875 Z M 5.8125 -12.6875 "/></g></g></g><g fill="#ffffff" fill-opacity="1"><g transform="translate(264.34617, 339.067507)"><g/></g></g><g fill="#ffffff" fill-opacity="1"><g transform="translate(272.343461, 339.067507)"><g><path d="M 2.0625 -30.609375 L 8.5625 -30.609375 C 11.050781 -30.609375 12.953125 -29.910156 14.265625 -28.515625 C 15.585938 -27.128906 16.25 -25.191406 16.25 -22.703125 L 16.25 -8.390625 C 16.25 -5.515625 15.550781 -3.394531 14.15625 -2.03125 C 12.769531 -0.675781 10.773438 0 8.171875 0 L 2.0625 0 Z M 6.453125 -4.125 L 8.46875 -4.125 C 9.695312 -4.125 10.570312 -4.429688 11.09375 -5.046875 C 11.613281 -5.671875 11.875 -6.640625 11.875 -7.953125 L 11.875 -22.703125 C 11.875 -23.910156 11.628906 -24.84375 11.140625 -25.5 C 10.648438 -26.15625 9.757812 -26.484375 8.46875 -26.484375 L 6.453125 -26.484375 Z M 6.453125 -4.125 "/></g></g></g><g fill="#ffffff" fill-opacity="1"><g transform="translate(290.659832, 339.067507)"><g><path d="M 10.109375 -2.234375 L 10.015625 -2.234375 C 9.441406 -1.429688 8.859375 -0.8125 8.265625 -0.375 C 7.679688 0.0507812 6.863281 0.265625 5.8125 0.265625 C 5.289062 0.265625 4.753906 0.179688 4.203125 0.015625 C 3.660156 -0.140625 3.15625 -0.425781 2.6875 -0.84375 C 2.21875 -1.257812 1.832031 -1.84375 1.53125 -2.59375 C 1.226562 -3.351562 1.078125 -4.335938 1.078125 -5.546875 C 1.078125 -6.773438 1.175781 -7.851562 1.375 -8.78125 C 1.570312 -9.71875 1.9375 -10.492188 2.46875 -11.109375 C 3 -11.734375 3.707031 -12.191406 4.59375 -12.484375 C 5.488281 -12.785156 6.625 -12.9375 8 -12.9375 C 8.3125 -12.9375 8.625 -12.921875 8.9375 -12.890625 C 9.257812 -12.867188 9.648438 -12.84375 10.109375 -12.8125 L 10.109375 -15.09375 C 10.109375 -15.84375 9.945312 -16.457031 9.625 -16.9375 C 9.3125 -17.425781 8.738281 -17.671875 7.90625 -17.671875 C 7.332031 -17.671875 6.8125 -17.484375 6.34375 -17.109375 C 5.875 -16.742188 5.566406 -16.203125 5.421875 -15.484375 L 1.15625 -15.484375 C 1.300781 -17.460938 1.960938 -19.035156 3.140625 -20.203125 C 3.710938 -20.773438 4.398438 -21.226562 5.203125 -21.5625 C 6.003906 -21.894531 6.90625 -22.0625 7.90625 -22.0625 C 8.820312 -22.0625 9.679688 -21.914062 10.484375 -21.625 C 11.296875 -21.34375 11.992188 -20.914062 12.578125 -20.34375 C 13.160156 -19.769531 13.625 -19.050781 13.96875 -18.1875 C 14.3125 -17.332031 14.484375 -16.328125 14.484375 -15.171875 L 14.484375 0 L 10.109375 0 Z M 10.109375 -9.375 C 9.617188 -9.457031 9.21875 -9.5 8.90625 -9.5 C 7.957031 -9.5 7.144531 -9.273438 6.46875 -8.828125 C 5.800781 -8.390625 5.46875 -7.582031 5.46875 -6.40625 C 5.46875 -5.570312 5.664062 -4.894531 6.0625 -4.375 C 6.46875 -3.863281 7.023438 -3.609375 7.734375 -3.609375 C 8.484375 -3.609375 9.066406 -3.851562 9.484375 -4.34375 C 9.898438 -4.832031 10.109375 -5.519531 10.109375 -6.40625 Z M 10.109375 -9.375 "/></g></g></g><g fill="#ffffff" fill-opacity="1"><g transform="translate(306.568411, 339.067507)"><g><path d="M 1.8125 -28.421875 L 6.1875 -28.421875 L 6.1875 -21.796875 L 8.90625 -21.796875 L 8.90625 -18.359375 L 6.1875 -18.359375 L 6.1875 -6.28125 C 6.1875 -5.757812 6.238281 -5.351562 6.34375 -5.0625 C 6.445312 -4.78125 6.601562 -4.566406 6.8125 -4.421875 C 7.03125 -4.285156 7.3125 -4.203125 7.65625 -4.171875 C 8 -4.140625 8.414062 -4.125 8.90625 -4.125 L 8.90625 0 L 7.09375 0 C 6.09375 0 5.253906 -0.15625 4.578125 -0.46875 C 3.898438 -0.789062 3.359375 -1.191406 2.953125 -1.671875 C 2.554688 -2.160156 2.265625 -2.710938 2.078125 -3.328125 C 1.898438 -3.941406 1.8125 -4.535156 1.8125 -5.109375 L 1.8125 -18.359375 L -0.390625 -18.359375 L -0.390625 -21.796875 L 1.8125 -21.796875 Z M 1.8125 -28.421875 "/></g></g></g><g fill="#ffffff" fill-opacity="1"><g transform="translate(315.339632, 339.067507)"><g><path d="M 10.109375 -2.234375 L 10.015625 -2.234375 C 9.441406 -1.429688 8.859375 -0.8125 8.265625 -0.375 C 7.679688 0.0507812 6.863281 0.265625 5.8125 0.265625 C 5.289062 0.265625 4.753906 0.179688 4.203125 0.015625 C 3.660156 -0.140625 3.15625 -0.425781 2.6875 -0.84375 C 2.21875 -1.257812 1.832031 -1.84375 1.53125 -2.59375 C 1.226562 -3.351562 1.078125 -4.335938 1.078125 -5.546875 C 1.078125 -6.773438 1.175781 -7.851562 1.375 -8.78125 C 1.570312 -9.71875 1.9375 -10.492188 2.46875 -11.109375 C 3 -11.734375 3.707031 -12.191406 4.59375 -12.484375 C 5.488281 -12.785156 6.625 -12.9375 8 -12.9375 C 8.3125 -12.9375 8.625 -12.921875 8.9375 -12.890625 C 9.257812 -12.867188 9.648438 -12.84375 10.109375 -12.8125 L 10.109375 -15.09375 C 10.109375 -15.84375 9.945312 -16.457031 9.625 -16.9375 C 9.3125 -17.425781 8.738281 -17.671875 7.90625 -17.671875 C 7.332031 -17.671875 6.8125 -17.484375 6.34375 -17.109375 C 5.875 -16.742188 5.566406 -16.203125 5.421875 -15.484375 L 1.15625 -15.484375 C 1.300781 -17.460938 1.960938 -19.035156 3.140625 -20.203125 C 3.710938 -20.773438 4.398438 -21.226562 5.203125 -21.5625 C 6.003906 -21.894531 6.90625 -22.0625 7.90625 -22.0625 C 8.820312 -22.0625 9.679688 -21.914062 10.484375 -21.625 C 11.296875 -21.34375 11.992188 -20.914062 12.578125 -20.34375 C 13.160156 -19.769531 13.625 -19.050781 13.96875 -18.1875 C 14.3125 -17.332031 14.484375 -16.328125 14.484375 -15.171875 L 14.484375 0 L 10.109375 0 Z M 10.109375 -9.375 C 9.617188 -9.457031 9.21875 -9.5 8.90625 -9.5 C 7.957031 -9.5 7.144531 -9.273438 6.46875 -8.828125 C 5.800781 -8.390625 5.46875 -7.582031 5.46875 -6.40625 C 5.46875 -5.570312 5.664062 -4.894531 6.0625 -4.375 C 6.46875 -3.863281 7.023438 -3.609375 7.734375 -3.609375 C 8.484375 -3.609375 9.066406 -3.851562 9.484375 -4.34375 C 9.898438 -4.832031 10.109375 -5.519531 10.109375 -6.40625 Z M 10.109375 -9.375 "/></g></g></g><g fill="#ffffff" fill-opacity="1"><g transform="translate(331.248212, 339.067507)"><g><path d="M 9.765625 -15.6875 C 9.734375 -16.4375 9.492188 -17 9.046875 -17.375 C 8.609375 -17.75 8.101562 -17.9375 7.53125 -17.9375 C 6.84375 -17.9375 6.3125 -17.710938 5.9375 -17.265625 C 5.5625 -16.816406 5.375 -16.304688 5.375 -15.734375 C 5.375 -15.335938 5.472656 -14.941406 5.671875 -14.546875 C 5.878906 -14.160156 6.394531 -13.8125 7.21875 -13.5 L 9.796875 -12.46875 C 11.429688 -11.84375 12.554688 -10.984375 13.171875 -9.890625 C 13.796875 -8.796875 14.109375 -7.609375 14.109375 -6.328125 C 14.109375 -5.398438 13.941406 -4.539062 13.609375 -3.75 C 13.273438 -2.96875 12.820312 -2.273438 12.25 -1.671875 C 11.675781 -1.078125 10.988281 -0.601562 10.1875 -0.25 C 9.382812 0.09375 8.507812 0.265625 7.5625 0.265625 C 6.707031 0.265625 5.890625 0.117188 5.109375 -0.171875 C 4.335938 -0.460938 3.65625 -0.878906 3.0625 -1.421875 C 2.476562 -1.960938 2 -2.640625 1.625 -3.453125 C 1.257812 -4.273438 1.0625 -5.234375 1.03125 -6.328125 L 5.15625 -6.328125 C 5.238281 -5.722656 5.445312 -5.160156 5.78125 -4.640625 C 6.113281 -4.128906 6.695312 -3.875 7.53125 -3.875 C 8.15625 -3.875 8.71875 -4.078125 9.21875 -4.484375 C 9.71875 -4.898438 9.96875 -5.484375 9.96875 -6.234375 C 9.96875 -6.835938 9.8125 -7.351562 9.5 -7.78125 C 9.1875 -8.207031 8.613281 -8.582031 7.78125 -8.90625 L 5.671875 -9.671875 C 4.296875 -10.191406 3.210938 -10.957031 2.421875 -11.96875 C 1.640625 -12.988281 1.25 -14.226562 1.25 -15.6875 C 1.25 -16.613281 1.421875 -17.46875 1.765625 -18.25 C 2.109375 -19.039062 2.570312 -19.710938 3.15625 -20.265625 C 3.75 -20.828125 4.429688 -21.265625 5.203125 -21.578125 C 5.972656 -21.898438 6.804688 -22.0625 7.703125 -22.0625 C 8.585938 -22.0625 9.410156 -21.894531 10.171875 -21.5625 C 10.929688 -21.226562 11.582031 -20.78125 12.125 -20.21875 C 12.664062 -19.664062 13.09375 -18.992188 13.40625 -18.203125 C 13.726562 -17.421875 13.890625 -16.582031 13.890625 -15.6875 Z M 9.765625 -15.6875 "/></g></g></g><g fill="#ffffff" fill-opacity="1"><g transform="translate(346.382862, 339.067507)"><g><path d="M 5.8125 -9.25 L 5.8125 -6.28125 C 5.8125 -5.59375 6.003906 -5.0625 6.390625 -4.6875 C 6.773438 -4.3125 7.296875 -4.125 7.953125 -4.125 C 8.785156 -4.125 9.335938 -4.367188 9.609375 -4.859375 C 9.878906 -5.347656 10.046875 -5.835938 10.109375 -6.328125 L 14.484375 -6.328125 C 14.484375 -5.398438 14.332031 -4.535156 14.03125 -3.734375 C 13.738281 -2.929688 13.304688 -2.242188 12.734375 -1.671875 C 12.160156 -1.078125 11.46875 -0.601562 10.65625 -0.25 C 9.851562 0.09375 8.953125 0.265625 7.953125 0.265625 C 6.609375 0.265625 5.445312 -0.0195312 4.46875 -0.59375 C 3.5 -1.175781 2.753906 -1.9375 2.234375 -2.875 C 1.921875 -3.445312 1.707031 -4.109375 1.59375 -4.859375 C 1.476562 -5.609375 1.421875 -6.425781 1.421875 -7.3125 L 1.421875 -14.484375 C 1.421875 -15.378906 1.476562 -16.195312 1.59375 -16.9375 C 1.707031 -17.6875 1.921875 -18.347656 2.234375 -18.921875 C 2.753906 -19.867188 3.5 -20.628906 4.46875 -21.203125 C 5.445312 -21.773438 6.609375 -22.0625 7.953125 -22.0625 C 8.953125 -22.0625 9.859375 -21.890625 10.671875 -21.546875 C 11.492188 -21.203125 12.1875 -20.71875 12.75 -20.09375 C 13.3125 -19.476562 13.738281 -18.753906 14.03125 -17.921875 C 14.332031 -17.097656 14.484375 -16.210938 14.484375 -15.265625 L 14.484375 -9.25 Z M 5.8125 -12.6875 L 10.109375 -12.6875 L 10.109375 -15.171875 C 10.109375 -16.003906 9.910156 -16.628906 9.515625 -17.046875 C 9.128906 -17.460938 8.609375 -17.671875 7.953125 -17.671875 C 7.296875 -17.671875 6.773438 -17.460938 6.390625 -17.046875 C 6.003906 -16.628906 5.8125 -16.003906 5.8125 -15.171875 Z M 5.8125 -12.6875 "/></g></g></g><g fill="#ffffff" fill-opacity="1"><g transform="translate(362.291453, 339.067507)"><g><path d="M 1.8125 -28.421875 L 6.1875 -28.421875 L 6.1875 -21.796875 L 8.90625 -21.796875 L 8.90625 -18.359375 L 6.1875 -18.359375 L 6.1875 -6.28125 C 6.1875 -5.757812 6.238281 -5.351562 6.34375 -5.0625 C 6.445312 -4.78125 6.601562 -4.566406 6.8125 -4.421875 C 7.03125 -4.285156 7.3125 -4.203125 7.65625 -4.171875 C 8 -4.140625 8.414062 -4.125 8.90625 -4.125 L 8.90625 0 L 7.09375 0 C 6.09375 0 5.253906 -0.15625 4.578125 -0.46875 C 3.898438 -0.789062 3.359375 -1.191406 2.953125 -1.671875 C 2.554688 -2.160156 2.265625 -2.710938 2.078125 -3.328125 C 1.898438 -3.941406 1.8125 -4.535156 1.8125 -5.109375 L 1.8125 -18.359375 L -0.390625 -18.359375 L -0.390625 -21.796875 L 1.8125 -21.796875 Z M 1.8125 -28.421875 "/></g></g></g></svg>