<svg xmlns="http://www.w3.org/2000/svg" xmlns:xlink="http://www.w3.org/1999/xlink" width="500" zoomAndPan="magnify" viewBox="0 0 375 374.999991" height="500" preserveAspectRatio="xMidYMid meet" version="1.0"><path stroke-linecap="butt" transform="matrix(0.75, 0, 0, 0.75, -146.469667, 110.52408)" fill="none" stroke-linejoin="miter" d="M 213.923112 48.504355 C 213.923112 95.676233 241.537698 123.212693 290.027284 124.608527 L 297.751243 124.608527 C 303.506452 124.608527 314.928327 124.608527 314.928327 141.785611 L 314.928327 166.030404 C 314.928327 175.072072 302.110618 185.509572 283.94395 185.509572 L 220.001238 185.509572 L 220.001238 234.327284 L 283.94395 234.327284 C 327.667911 234.327284 363.423122 203.671032 363.423122 166.030404 L 363.423122 141.785611 C 363.423122 110.144984 342.876246 75.790815 297.751243 75.790815 L 293.397076 75.790815 C 271.126241 75.790815 262.740824 70.691856 262.740824 48.504355 C 262.740824 40.775188 272.522075 27.957479 279.917908 27.957479 L 306.79291 27.957479 L 355.610622 28.285604 L 355.610622 -20.532108 L 273.834575 -20.532108 C 239.808531 -16.834191 213.923112 18.176228 213.923112 48.504355 Z M 515.173132 -20.865441 L 380.219998 -21.193566 L 380.219998 233.671034 L 515.173132 233.671034 L 515.173132 184.853322 L 429.042918 184.853322 L 429.042918 123.952277 L 484.600213 123.952277 L 484.600213 75.129357 L 429.042918 75.129357 L 429.042918 27.629354 L 515.173132 27.629354 Z M 623.933556 -20.865441 L 532.048133 -20.865441 L 532.048133 233.671034 L 623.933556 233.671034 C 655.246058 233.671034 680.475226 208.108532 680.475226 177.124155 L 680.475226 35.681437 C 680.475226 4.452269 655.246058 -20.865441 623.933556 -20.865441 Z M 632.068973 177.124155 C 632.068973 181.48353 628.287723 184.853322 623.933556 184.853322 L 580.865845 184.853322 L 580.865845 27.629354 L 623.933556 27.629354 C 628.287723 27.629354 632.068973 31.32727 632.068973 35.681437 Z M 632.068973 177.124155 " stroke="#429df2" stroke-width="9.678658" stroke-opacity="1" stroke-miterlimit="4"/></svg>